# xmcd
# 
# Track frame offsets:
#     150
#     19490
#     35098
#     54630
#     70570
#     84320
#     97150
#     109665
#     124428
#     139780
#     152114
#     162133
#     176366
#     190046
#     205090
#     217799
#     230751
#     243663
#     258963
#     270977
# 
# Disc length: 3760
# 
# Revision: 1
# Processed by: cddbd v1.5.2PL0 Copyright (c) Steve Scherf et al.
# Submitted via: fre:ac v1.0.31
# 
DISCID=170eae14
DTITLE=Little Walter - Blowin' The Blues Disc 3
DYEAR=2008
DGENRE=Blues
TTITLE0=Goin' Down Slow
TTITLE1=Walter's Blues
TTITLE2=Lovin' You All the Time
TTITLE3=Blue Mood
TTITLE4=I'm Ready
TTITLE5=I Just Wanna Make Love To You
TTITLE6=I'm Your Hoochie Coochie Man
TTITLE7=Baby Please Don't Go
TTITLE8=They Call Me Muddy Waters
TTITLE9=Howlin' Wolf
TTITLE10=Evans Shuffle (Ebony Boogie)
TTITLE11=Rattlesnake
TTITLE12=Sloppy Drunk
TTITLE13=Chance To Love
TTITLE14=That's Alright
TTITLE15=Me And My Chauffeur Blues
TTITLE16=Big World
TTITLE17=Dark Road
TTITLE18=Joliet Blues
TTITLE19=So Glad I Found You
EXTD=
EXTT0=
EXTT1=
EXTT2=
EXTT3=
EXTT4=
EXTT5=
EXTT6=
EXTT7=
EXTT8=
EXTT9=
EXTT10=
EXTT11=
EXTT12=
EXTT13=
EXTT14=
EXTT15=
EXTT16=
EXTT17=
EXTT18=
EXTT19=
PLAYORDER=
